<?xml version="1.0" encoding="utf-8"?>
<!-- created with bpmn-js / http://bpmn.io -->
<!DOCTYPE svg PUBLIC "-//W3C//DTD SVG 1.1//EN" "http://www.w3.org/Graphics/SVG/1.1/DTD/svg11.dtd">
<svg xmlns="http://www.w3.org/2000/svg" xmlns:xlink="http://www.w3.org/1999/xlink" width="1300" height="840" viewBox="5 15 1300 840" version="1.1"><g class="djs-group"><g class="djs-element djs-shape" data-element-id="Participant_1" style="display: block;" transform="matrix(1 0 0 1 10 20)"><g class="djs-visual"><rect x="0" y="0" width="1290" height="830" rx="0" ry="0" style="stroke-linecap: round; stroke-linejoin: round; stroke: rgb(34, 36, 42); stroke-width: 1.5px; fill: white; fill-opacity: 0.95;"/><path style="fill: none; stroke-linecap: round; stroke-linejoin: round; stroke: rgb(34, 36, 42); stroke-width: 1.5px;" d="M30,0L30,830"/><text lineHeight="1.2" class="djs-label" style="font-family: Arial, sans-serif; font-size: 12px; font-weight: normal; fill: rgb(34, 36, 42);" transform="matrix(-1.83697e-16 -1 1 -1.83697e-16 0 830)"><tspan x="381.3115234375" y="18.6">Abo-Anfrage</tspan></text></g><rect class="djs-hit djs-hit-all" x="0" y="0" width="1290" height="830" style="fill: none; stroke-opacity: 0; stroke: white; stroke-width: 15px;"/></g><g class="djs-children"><g class="djs-group"><g class="djs-element djs-shape" data-element-id="Lane_Tourenplanung" style="display: block;" transform="matrix(1 0 0 1 40 430)"><g class="djs-visual"><rect x="0" y="0" width="1260" height="420" rx="0" ry="0" style="stroke-linecap: round; stroke-linejoin: round; stroke: rgb(34, 36, 42); stroke-width: 1.5px; fill: white; fill-opacity: 0.25;"/><text lineHeight="1.2" class="djs-label" style="font-family: Arial, sans-serif; font-size: 12px; font-weight: normal; fill: rgb(34, 36, 42);" transform="matrix(-1.83697e-16 -1 1 -1.83697e-16 0 420)"><tspan x="170.2998046875" y="18.6">Tourenplanung</tspan></text></g><rect class="djs-hit djs-hit-all" x="0" y="0" width="1260" height="420" style="fill: none; stroke-opacity: 0; stroke: white; stroke-width: 15px;"/></g></g><g class="djs-group"><g class="djs-element djs-shape" data-element-id="Lane_Kundenkartei" style="display: block;" transform="matrix(1 0 0 1 40 300)"><g class="djs-visual"><rect x="0" y="0" width="1260" height="130" rx="0" ry="0" style="stroke-linecap: round; stroke-linejoin: round; stroke: rgb(34, 36, 42); stroke-width: 1.5px; fill: white; fill-opacity: 0.25;"/><text lineHeight="1.2" class="djs-label" style="font-family: Arial, sans-serif; font-size: 12px; font-weight: normal; fill: rgb(34, 36, 42);" transform="matrix(-1.83697e-16 -1 1 -1.83697e-16 0 130)"><tspan x="29.6416015625" y="18.6">Kundenkartei</tspan></text></g><rect class="djs-hit djs-hit-all" x="0" y="0" width="1260" height="130" style="fill: none; stroke-opacity: 0; stroke: white; stroke-width: 15px;"/></g></g><g class="djs-group"><g class="djs-element djs-shape" data-element-id="Lane_Bestellformular" style="display: block;" transform="matrix(1 0 0 1 40 150)"><g class="djs-visual"><rect x="0" y="0" width="1260" height="150" rx="0" ry="0" style="stroke-linecap: round; stroke-linejoin: round; stroke: rgb(34, 36, 42); stroke-width: 1.5px; fill: white; fill-opacity: 0.25;"/><text lineHeight="1.2" class="djs-label" style="font-family: Arial, sans-serif; font-size: 12px; font-weight: normal; fill: rgb(34, 36, 42);" transform="matrix(-1.83697e-16 -1 1 -1.83697e-16 0 150)"><tspan x="34.986328125" y="18.6">Bestellformular</tspan></text></g><rect class="djs-hit djs-hit-all" x="0" y="0" width="1260" height="150" style="fill: none; stroke-opacity: 0; stroke: white; stroke-width: 15px;"/></g></g><g class="djs-group"><g class="djs-element djs-shape" data-element-id="Lane_Kunde" style="display: block;" transform="matrix(1 0 0 1 40 20)"><g class="djs-visual"><rect x="0" y="0" width="1260" height="130" rx="0" ry="0" style="stroke-linecap: round; stroke-linejoin: round; stroke: rgb(34, 36, 42); stroke-width: 1.5px; fill: white; fill-opacity: 0.25;"/><text lineHeight="1.2" class="djs-label" style="font-family: Arial, sans-serif; font-size: 12px; font-weight: normal; fill: rgb(34, 36, 42);" transform="matrix(-1.83697e-16 -1 1 -1.83697e-16 0 130)"><tspan x="47.650390625" y="18.6">Kunde</tspan></text></g><rect class="djs-hit djs-hit-all" x="0" y="0" width="1260" height="130" style="fill: none; stroke-opacity: 0; stroke: white; stroke-width: 15px;"/></g></g><g class="djs-group"><g class="djs-element djs-shape" data-element-id="Start" style="display: block;" transform="matrix(1 0 0 1 92 67)"><g class="djs-visual"><circle cx="18" cy="18" r="18" style="stroke-linecap: round; stroke-linejoin: round; stroke: rgb(34, 36, 42); stroke-width: 2px; fill: white; fill-opacity: 0.95;"/></g><rect class="djs-hit djs-hit-all" x="0" y="0" width="36" height="36" style="fill: none; stroke-opacity: 0; stroke: white; stroke-width: 15px;"/></g></g><g class="djs-group"><g class="djs-element djs-shape" data-element-id="Start_label" style="display: block;" transform="matrix(1 0 0 1 71 103)"><g class="djs-visual"><text lineHeight="1.2" class="djs-label" style="font-family: Arial, sans-serif; font-size: 11px; font-weight: normal; fill: rgb(34, 36, 42);"><tspan x="21.4638671875" y="9.899999999999999">Möchte </tspan><tspan x="11.9892578125" y="23.099999999999998">regelmäßig </tspan><tspan x="0.3662109375" y="36.3">beliefert werden</tspan></text></g><rect class="djs-hit djs-hit-all" x="0" y="0" width="79" height="40" style="fill: none; stroke-opacity: 0; stroke: white; stroke-width: 15px;"/></g></g><g class="djs-group"><g class="djs-element djs-shape" data-element-id="Formular" style="display: block;" transform="matrix(1 0 0 1 190 45)"><g class="djs-visual"><rect x="0" y="0" width="120" height="80" rx="10" ry="10" style="stroke-linecap: round; stroke-linejoin: round; stroke: rgb(34, 36, 42); stroke-width: 2px; fill: white; fill-opacity: 0.95;"/><text lineHeight="1.2" class="djs-label" style="font-family: Arial, sans-serif; font-size: 12px; font-weight: normal; fill: rgb(34, 36, 42);"><tspan x="23.3232421875" y="29.200000000000003">Abo-Formular </tspan><tspan x="20.9765625" y="43.6">ausfüllen, Tour </tspan><tspan x="40.986328125" y="58">wählen</tspan></text></g><rect class="djs-hit djs-hit-all" x="0" y="0" width="120" height="80" style="fill: none; stroke-opacity: 0; stroke: white; stroke-width: 15px;"/></g></g><g class="djs-group"><g class="djs-element djs-shape" data-element-id="Eingang" style="display: block;" transform="matrix(1 0 0 1 632 67)"><g class="djs-visual"><circle cx="18" cy="18" r="18" style="stroke-linecap: round; stroke-linejoin: round; stroke: rgb(34, 36, 42); stroke-width: 4px; fill: white; fill-opacity: 0.95;"/></g><rect class="djs-hit djs-hit-all" x="0" y="0" width="36" height="36" style="fill: none; stroke-opacity: 0; stroke: white; stroke-width: 15px;"/></g></g><g class="djs-group"><g class="djs-element djs-shape" data-element-id="Eingang_label" style="display: block;" transform="matrix(1 0 0 1 621 103)"><g class="djs-visual"><text lineHeight="1.2" class="djs-label" style="font-family: Arial, sans-serif; font-size: 11px; font-weight: normal; fill: rgb(34, 36, 42);"><tspan x="0.450439453125" y="9.899999999999999">Bestätigung</tspan><tspan x="9.624267578125" y="23.099999999999998">erhalten</tspan></text></g><rect class="djs-hit djs-hit-all" x="0" y="0" width="59" height="27" style="fill: none; stroke-opacity: 0; stroke: white; stroke-width: 15px;"/></g></g><g class="djs-group"><g class="djs-element djs-shape" data-element-id="Pruefen" style="display: block;" transform="matrix(1 0 0 1 190 185)"><g class="djs-visual"><rect x="0" y="0" width="120" height="80" rx="10" ry="10" style="stroke-linecap: round; stroke-linejoin: round; stroke: rgb(34, 36, 42); stroke-width: 2px; fill: white; fill-opacity: 0.95;"/><text lineHeight="1.2" class="djs-label" style="font-family: Arial, sans-serif; font-size: 12px; font-weight: normal; fill: rgb(34, 36, 42);"><tspan x="16.974609375" y="36.4">Pflichtfelder und </tspan><tspan x="19.3095703125" y="50.8">Adresse prüfen</tspan></text></g><rect class="djs-hit djs-hit-all" x="0" y="0" width="120" height="80" style="fill: none; stroke-opacity: 0; stroke: white; stroke-width: 15px;"/></g></g><g class="djs-group"><g class="djs-element djs-shape" data-element-id="Bestaetigen" style="display: block;" transform="matrix(1 0 0 1 390 185)"><g class="djs-visual"><rect x="0" y="0" width="120" height="80" rx="10" ry="10" style="stroke-linecap: round; stroke-linejoin: round; stroke: rgb(34, 36, 42); stroke-width: 2px; fill: white; fill-opacity: 0.95;"/><text lineHeight="1.2" class="djs-label" style="font-family: Arial, sans-serif; font-size: 12px; font-weight: normal; fill: rgb(34, 36, 42);"><tspan x="19.96875" y="29.200000000000003">Bestätigung an </tspan><tspan x="27.6357421875" y="43.6">den Kunden </tspan><tspan x="40.3154296875" y="58">senden</tspan></text></g><rect class="djs-hit djs-hit-all" x="0" y="0" width="120" height="80" style="fill: none; stroke-opacity: 0; stroke: white; stroke-width: 15px;"/></g></g><g class="djs-group"><g class="djs-element djs-shape" data-element-id="Tour" style="display: block;" transform="matrix(1 0 0 1 625 200)"><g class="djs-visual"><polygon points="25,0 50,25 25,50 0,25" style="stroke-linecap: round; stroke-linejoin: round; stroke: rgb(34, 36, 42); stroke-width: 2px; fill: white; fill-opacity: 0.95;"/><path d="m 16,15 7.42857142857143,9.714285714285715 -7.42857142857143,9.714285714285715 3.428571428571429,0 5.714285714285715,-7.464228571428572 5.714285714285715,7.464228571428572 3.428571428571429,0 -7.42857142857143,-9.714285714285715 7.42857142857143,-9.714285714285715 -3.428571428571429,0 -5.714285714285715,7.464228571428572 -5.714285714285715,-7.464228571428572 -3.428571428571429,0 z" style="fill: rgb(34, 36, 42); stroke-linecap: round; stroke-linejoin: round; stroke: rgb(34, 36, 42); stroke-width: 1px;"/></g><rect class="djs-hit djs-hit-all" x="0" y="0" width="50" height="50" style="fill: none; stroke-opacity: 0; stroke: white; stroke-width: 15px;"/></g></g><g class="djs-group"><g class="djs-element djs-shape" data-element-id="Tour_label" style="display: block;" transform="matrix(1 0 0 1 616 168)"><g class="djs-visual"><text lineHeight="1.2" class="djs-label" style="font-family: Arial, sans-serif; font-size: 11px; font-weight: normal; fill: rgb(34, 36, 42);"><tspan x="0.4736328125" y="9.899999999999999">Welche Tour?</tspan></text></g><rect class="djs-hit djs-hit-all" x="0" y="0" width="68" height="14" style="fill: none; stroke-opacity: 0; stroke: white; stroke-width: 15px;"/></g></g><g class="djs-group"><g class="djs-element djs-shape" data-element-id="Liste" style="display: block;" transform="matrix(1 0 0 1 190 325)"><g class="djs-visual"><rect x="0" y="0" width="120" height="80" rx="10" ry="10" style="stroke-linecap: round; stroke-linejoin: round; stroke: rgb(34, 36, 42); stroke-width: 2px; fill: white; fill-opacity: 0.95;"/><text lineHeight="1.2" class="djs-label" style="font-family: Arial, sans-serif; font-size: 12px; font-weight: normal; fill: rgb(34, 36, 42);"><tspan x="21.97265625" y="36.4">Kunde in Liste </tspan><tspan x="22.974609375" y="50.8">Abo-Anfragen</tspan></text></g><rect class="djs-hit djs-hit-all" x="0" y="0" width="120" height="80" style="fill: none; stroke-opacity: 0; stroke: white; stroke-width: 15px;"/></g></g><g class="djs-group"><g class="djs-element djs-shape" data-element-id="Status" style="display: block;" transform="matrix(1 0 0 1 390 325)"><g class="djs-visual"><rect x="0" y="0" width="120" height="80" rx="10" ry="10" style="stroke-linecap: round; stroke-linejoin: round; stroke: rgb(34, 36, 42); stroke-width: 2px; fill: white; fill-opacity: 0.95;"/><text lineHeight="1.2" class="djs-label" style="font-family: Arial, sans-serif; font-size: 12px; font-weight: normal; fill: rgb(34, 36, 42);"><tspan x="32.982421875" y="29.200000000000003">Status auf </tspan><tspan x="14.98828125" y="43.6">ABO_ANFRAGE </tspan><tspan x="42.322265625" y="58">setzen</tspan></text></g><rect class="djs-hit djs-hit-all" x="0" y="0" width="120" height="80" style="fill: none; stroke-opacity: 0; stroke: white; stroke-width: 15px;"/></g></g><g class="djs-group"><g class="djs-element djs-shape" data-element-id="Erfasst" style="display: block;" transform="matrix(1 0 0 1 632 347)"><g class="djs-visual"><circle cx="18" cy="18" r="18" style="stroke-linecap: round; stroke-linejoin: round; stroke: rgb(34, 36, 42); stroke-width: 4px; fill: white; fill-opacity: 0.95;"/></g><rect class="djs-hit djs-hit-all" x="0" y="0" width="36" height="36" style="fill: none; stroke-opacity: 0; stroke: white; stroke-width: 15px;"/></g></g><g class="djs-group"><g class="djs-element djs-shape" data-element-id="Erfasst_label" style="display: block;" transform="matrix(1 0 0 1 633 383)"><g class="djs-visual"><text lineHeight="1.2" class="djs-label" style="font-family: Arial, sans-serif; font-size: 11px; font-weight: normal; fill: rgb(34, 36, 42);"><tspan x="0.49462890625" y="9.899999999999999">erfasst</tspan></text></g><rect class="djs-hit djs-hit-all" x="0" y="0" width="34" height="14" style="fill: none; stroke-opacity: 0; stroke: white; stroke-width: 15px;"/></g></g><g class="djs-group"><g class="djs-element djs-shape" data-element-id="TourNord" style="display: block;" transform="matrix(1 0 0 1 790 450)"><g class="djs-visual"><rect x="0" y="0" width="170" height="80" rx="10" ry="10" style="stroke-linecap: round; stroke-linejoin: round; stroke: rgb(34, 36, 42); stroke-width: 2px; fill: white; fill-opacity: 0.95;"/><text lineHeight="1.2" class="djs-label" style="font-family: Arial, sans-serif; font-size: 12px; font-weight: normal; fill: rgb(34, 36, 42);"><tspan x="12.6484375" y="43.599999999999994">Tour Nord: Dörfer am Fluss</tspan></text></g><rect class="djs-hit djs-hit-all" x="0" y="0" width="170" height="80" style="fill: none; stroke-opacity: 0; stroke: white; stroke-width: 15px;"/></g></g><g class="djs-group"><g class="djs-element djs-shape" data-element-id="TourSued" style="display: block;" transform="matrix(1 0 0 1 790 550)"><g class="djs-visual"><rect x="0" y="0" width="170" height="80" rx="10" ry="10" style="stroke-linecap: round; stroke-linejoin: round; stroke: rgb(34, 36, 42); stroke-width: 2px; fill: white; fill-opacity: 0.95;"/><text lineHeight="1.2" class="djs-label" style="font-family: Arial, sans-serif; font-size: 12px; font-weight: normal; fill: rgb(34, 36, 42);"><tspan x="19.955078125" y="36.4">Tour Süd: Stadtrand und </tspan><tspan x="61.6474609375" y="50.8">Siedlung</tspan></text></g><rect class="djs-hit djs-hit-all" x="0" y="0" width="170" height="80" style="fill: none; stroke-opacity: 0; stroke: white; stroke-width: 15px;"/></g></g><g class="djs-group"><g class="djs-element djs-shape" data-element-id="TourStadt" style="display: block;" transform="matrix(1 0 0 1 790 650)"><g class="djs-visual"><rect x="0" y="0" width="170" height="80" rx="10" ry="10" style="stroke-linecap: round; stroke-linejoin: round; stroke: rgb(34, 36, 42); stroke-width: 2px; fill: white; fill-opacity: 0.95;"/><text lineHeight="1.2" class="djs-label" style="font-family: Arial, sans-serif; font-size: 12px; font-weight: normal; fill: rgb(34, 36, 42);"><tspan x="15.9560546875" y="36.4">Tour Stadt: Innenstadt per </tspan><tspan x="58.3134765625" y="50.8">Lastenrad</tspan></text></g><rect class="djs-hit djs-hit-all" x="0" y="0" width="170" height="80" style="fill: none; stroke-opacity: 0; stroke: white; stroke-width: 15px;"/></g></g><g class="djs-group"><g class="djs-element djs-shape" data-element-id="TourHof" style="display: block;" transform="matrix(1 0 0 1 790 750)"><g class="djs-visual"><rect x="0" y="0" width="170" height="80" rx="10" ry="10" style="stroke-linecap: round; stroke-linejoin: round; stroke: rgb(34, 36, 42); stroke-width: 2px; fill: white; fill-opacity: 0.95;"/><text lineHeight="1.2" class="djs-label" style="font-family: Arial, sans-serif; font-size: 12px; font-weight: normal; fill: rgb(34, 36, 42);"><tspan x="22.9638671875" y="36.4">Abholung am Hof: alles </tspan><tspan x="66.3173828125" y="50.8">andere</tspan></text></g><rect class="djs-hit djs-hit-all" x="0" y="0" width="170" height="80" style="fill: none; stroke-opacity: 0; stroke: white; stroke-width: 15px;"/></g></g><g class="djs-group"><g class="djs-element djs-shape" data-element-id="Einplanen" style="display: block;" transform="matrix(1 0 0 1 1030 600)"><g class="djs-visual"><rect x="0" y="0" width="120" height="80" rx="10" ry="10" style="stroke-linecap: round; stroke-linejoin: round; stroke: rgb(34, 36, 42); stroke-width: 2px; fill: white; fill-opacity: 0.95;"/><text lineHeight="1.2" class="djs-label" style="font-family: Arial, sans-serif; font-size: 12px; font-weight: normal; fill: rgb(34, 36, 42);"><tspan x="17.302734375" y="36.4">Kiste einplanen, </tspan><tspan x="21.638671875" y="50.8">Status pflegen</tspan></text></g><rect class="djs-hit djs-hit-all" x="0" y="0" width="120" height="80" style="fill: none; stroke-opacity: 0; stroke: white; stroke-width: 15px;"/></g></g><g class="djs-group"><g class="djs-element djs-shape" data-element-id="Eingeplant" style="display: block;" transform="matrix(1 0 0 1 1212 622)"><g class="djs-visual"><circle cx="18" cy="18" r="18" style="stroke-linecap: round; stroke-linejoin: round; stroke: rgb(34, 36, 42); stroke-width: 4px; fill: white; fill-opacity: 0.95;"/></g><rect class="djs-hit djs-hit-all" x="0" y="0" width="36" height="36" style="fill: none; stroke-opacity: 0; stroke: white; stroke-width: 15px;"/></g></g><g class="djs-group"><g class="djs-element djs-shape" data-element-id="Eingeplant_label" style="display: block;" transform="matrix(1 0 0 1 1205 658)"><g class="djs-visual"><text lineHeight="1.2" class="djs-label" style="font-family: Arial, sans-serif; font-size: 11px; font-weight: normal; fill: rgb(34, 36, 42);"><tspan x="0.1162109375" y="9.899999999999999">eingeplant</tspan></text></g><rect class="djs-hit djs-hit-all" x="0" y="0" width="51" height="14" style="fill: none; stroke-opacity: 0; stroke: white; stroke-width: 15px;"/></g></g><g class="djs-group"><g class="djs-element djs-connection" data-element-id="Flow_1" style="display: block;"><g class="djs-visual"><defs><marker id="marker-1titif6qeuvibmd1cl8hl4oie" viewBox="0 0 20 20" refX="11" refY="10" markerWidth="10" markerHeight="10" orient="auto"><path d="M 1 5 L 11 10 L 1 15 Z" style="stroke-linecap: round; stroke-linejoin: round; stroke: rgb(34, 36, 42); stroke-width: 1px; fill: rgb(34, 36, 42);"/></marker></defs><path data-corner-radius="5" style="fill: none; stroke-linecap: round; stroke-linejoin: round; stroke: rgb(34, 36, 42); stroke-width: 2px; marker-end: url('#marker-1titif6qeuvibmd1cl8hl4oie');" d="M128,85L190,85"/></g><path d="M128,85L190,85" class="djs-hit djs-hit-stroke" style="fill: none; stroke-opacity: 0; stroke: white; stroke-width: 15px;"/></g></g><g class="djs-group"><g class="djs-element djs-connection" data-element-id="Flow_2" style="display: block;"><g class="djs-visual"><defs><marker id="marker-10ffwrlkph5on4hx2pf5n6d1t" viewBox="0 0 20 20" refX="11" refY="10" markerWidth="10" markerHeight="10" orient="auto"><path d="M 1 5 L 11 10 L 1 15 Z" style="stroke-linecap: round; stroke-linejoin: round; stroke: rgb(34, 36, 42); stroke-width: 1px; fill: rgb(34, 36, 42);"/></marker></defs><path data-corner-radius="5" style="fill: none; stroke-linecap: round; stroke-linejoin: round; stroke: rgb(34, 36, 42); stroke-width: 2px; marker-end: url('#marker-10ffwrlkph5on4hx2pf5n6d1t');" d="M250,125L250,185"/></g><path d="M250,125L250,185" class="djs-hit djs-hit-stroke" style="fill: none; stroke-opacity: 0; stroke: white; stroke-width: 15px;"/></g></g><g class="djs-group"><g class="djs-element djs-connection" data-element-id="Flow_3" style="display: block;"><g class="djs-visual"><defs><marker id="marker-3775p2svfsnsvw49ojydc4zly" viewBox="0 0 20 20" refX="11" refY="10" markerWidth="10" markerHeight="10" orient="auto"><path d="M 1 5 L 11 10 L 1 15 Z" style="stroke-linecap: round; stroke-linejoin: round; stroke: rgb(34, 36, 42); stroke-width: 1px; fill: rgb(34, 36, 42);"/></marker></defs><path data-corner-radius="5" style="fill: none; stroke-linecap: round; stroke-linejoin: round; stroke: rgb(34, 36, 42); stroke-width: 2px; marker-end: url('#marker-3775p2svfsnsvw49ojydc4zly');" d="M310,225L390,225"/></g><path d="M310,225L390,225" class="djs-hit djs-hit-stroke" style="fill: none; stroke-opacity: 0; stroke: white; stroke-width: 15px;"/></g></g><g class="djs-group"><g class="djs-element djs-connection" data-element-id="Flow_4" style="display: block;"><g class="djs-visual"><defs><marker id="marker-dqzd4mpc3rzx1vety6vbzw5c9" viewBox="0 0 20 20" refX="11" refY="10" markerWidth="10" markerHeight="10" orient="auto"><path d="M 1 5 L 11 10 L 1 15 Z" style="stroke-linecap: round; stroke-linejoin: round; stroke: rgb(34, 36, 42); stroke-width: 1px; fill: rgb(34, 36, 42);"/></marker></defs><path data-corner-radius="5" style="fill: none; stroke-linecap: round; stroke-linejoin: round; stroke: rgb(34, 36, 42); stroke-width: 2px; marker-end: url('#marker-dqzd4mpc3rzx1vety6vbzw5c9');" d="M450,185L450,90C450,87.5,452.5,85,455,85L632,85"/></g><path d="M450,185L450,85L632,85" class="djs-hit djs-hit-stroke" style="fill: none; stroke-opacity: 0; stroke: white; stroke-width: 15px;"/></g></g><g class="djs-group"><g class="djs-element djs-connection" data-element-id="Flow_5" style="display: block;"><g class="djs-visual"><defs><marker id="marker-4ooy01o1xr3hm68k6182tsbc9" viewBox="0 0 20 20" refX="11" refY="10" markerWidth="10" markerHeight="10" orient="auto"><path d="M 1 5 L 11 10 L 1 15 Z" style="stroke-linecap: round; stroke-linejoin: round; stroke: rgb(34, 36, 42); stroke-width: 1px; fill: rgb(34, 36, 42);"/></marker></defs><path data-corner-radius="5" style="fill: none; stroke-linecap: round; stroke-linejoin: round; stroke: rgb(34, 36, 42); stroke-width: 2px; marker-end: url('#marker-4ooy01o1xr3hm68k6182tsbc9');" d="M290,265L290,280C290,282.5,292.5,285,295,285L645,285C647.5,285,650,282.5,650,280L650,250"/></g><path d="M290,265L290,285L650,285L650,250" class="djs-hit djs-hit-stroke" style="fill: none; stroke-opacity: 0; stroke: white; stroke-width: 15px;"/></g></g><g class="djs-group"><g class="djs-element djs-connection" data-element-id="Flow_6" style="display: block;"><g class="djs-visual"><defs><marker id="marker-ec2deo4jfofbc7mks29r3nec2" viewBox="0 0 20 20" refX="11" refY="10" markerWidth="10" markerHeight="10" orient="auto"><path d="M 1 5 L 11 10 L 1 15 Z" style="stroke-linecap: round; stroke-linejoin: round; stroke: rgb(34, 36, 42); stroke-width: 1px; fill: rgb(34, 36, 42);"/></marker></defs><path data-corner-radius="5" style="fill: none; stroke-linecap: round; stroke-linejoin: round; stroke: rgb(34, 36, 42); stroke-width: 2px; marker-end: url('#marker-ec2deo4jfofbc7mks29r3nec2');" d="M230,265L230,325"/></g><path d="M230,265L230,325" class="djs-hit djs-hit-stroke" style="fill: none; stroke-opacity: 0; stroke: white; stroke-width: 15px;"/></g></g><g class="djs-group"><g class="djs-element djs-connection" data-element-id="Flow_7" style="display: block;"><g class="djs-visual"><defs><marker id="marker-e48m9tzexlvpskfkf20jrn3u3" viewBox="0 0 20 20" refX="11" refY="10" markerWidth="10" markerHeight="10" orient="auto"><path d="M 1 5 L 11 10 L 1 15 Z" style="stroke-linecap: round; stroke-linejoin: round; stroke: rgb(34, 36, 42); stroke-width: 1px; fill: rgb(34, 36, 42);"/></marker></defs><path data-corner-radius="5" style="fill: none; stroke-linecap: round; stroke-linejoin: round; stroke: rgb(34, 36, 42); stroke-width: 2px; marker-end: url('#marker-e48m9tzexlvpskfkf20jrn3u3');" d="M310,365L390,365"/></g><path d="M310,365L390,365" class="djs-hit djs-hit-stroke" style="fill: none; stroke-opacity: 0; stroke: white; stroke-width: 15px;"/></g></g><g class="djs-group"><g class="djs-element djs-connection" data-element-id="Flow_8" style="display: block;"><g class="djs-visual"><defs><marker id="marker-bu1z8j1bdfdii0xiy32r1tt9s" viewBox="0 0 20 20" refX="11" refY="10" markerWidth="10" markerHeight="10" orient="auto"><path d="M 1 5 L 11 10 L 1 15 Z" style="stroke-linecap: round; stroke-linejoin: round; stroke: rgb(34, 36, 42); stroke-width: 1px; fill: rgb(34, 36, 42);"/></marker></defs><path data-corner-radius="5" style="fill: none; stroke-linecap: round; stroke-linejoin: round; stroke: rgb(34, 36, 42); stroke-width: 2px; marker-end: url('#marker-bu1z8j1bdfdii0xiy32r1tt9s');" d="M510,365L632,365"/></g><path d="M510,365L632,365" class="djs-hit djs-hit-stroke" style="fill: none; stroke-opacity: 0; stroke: white; stroke-width: 15px;"/></g></g><g class="djs-group"><g class="djs-element djs-connection" data-element-id="Flow_9" style="display: block;"><g class="djs-visual"><defs><marker id="marker-9i015igix57gu23qodobmv4di" viewBox="0 0 20 20" refX="11" refY="10" markerWidth="10" markerHeight="10" orient="auto"><path d="M 1 5 L 11 10 L 1 15 Z" style="stroke-linecap: round; stroke-linejoin: round; stroke: rgb(34, 36, 42); stroke-width: 1px; fill: rgb(34, 36, 42);"/></marker></defs><path data-corner-radius="5" style="fill: none; stroke-linecap: round; stroke-linejoin: round; stroke: rgb(34, 36, 42); stroke-width: 2px; marker-end: url('#marker-9i015igix57gu23qodobmv4di');" d="M675,225L730,225C732.5,225,735,227.5,735,230L735,485C735,487.5,737.5,490,740,490L790,490"/></g><path d="M675,225L735,225L735,490L790,490" class="djs-hit djs-hit-stroke" style="fill: none; stroke-opacity: 0; stroke: white; stroke-width: 15px;"/></g></g><g class="djs-group"><g class="djs-element djs-connection" data-element-id="Flow_10" style="display: block;"><g class="djs-visual"><defs><marker id="marker-af0lzmq1cwpdj92u7zd0segv0" viewBox="0 0 20 20" refX="11" refY="10" markerWidth="10" markerHeight="10" orient="auto"><path d="M 1 5 L 11 10 L 1 15 Z" style="stroke-linecap: round; stroke-linejoin: round; stroke: rgb(34, 36, 42); stroke-width: 1px; fill: rgb(34, 36, 42);"/></marker></defs><path data-corner-radius="5" style="fill: none; stroke-linecap: round; stroke-linejoin: round; stroke: rgb(34, 36, 42); stroke-width: 2px; marker-end: url('#marker-af0lzmq1cwpdj92u7zd0segv0');" d="M675,225L730,225C732.5,225,735,227.5,735,230L735,585C735,587.5,737.5,590,740,590L790,590"/></g><path d="M675,225L735,225L735,590L790,590" class="djs-hit djs-hit-stroke" style="fill: none; stroke-opacity: 0; stroke: white; stroke-width: 15px;"/></g></g><g class="djs-group"><g class="djs-element djs-connection" data-element-id="Flow_11" style="display: block;"><g class="djs-visual"><defs><marker id="marker-a4ahaccslupff7ytir50q64ft" viewBox="0 0 20 20" refX="11" refY="10" markerWidth="10" markerHeight="10" orient="auto"><path d="M 1 5 L 11 10 L 1 15 Z" style="stroke-linecap: round; stroke-linejoin: round; stroke: rgb(34, 36, 42); stroke-width: 1px; fill: rgb(34, 36, 42);"/></marker></defs><path data-corner-radius="5" style="fill: none; stroke-linecap: round; stroke-linejoin: round; stroke: rgb(34, 36, 42); stroke-width: 2px; marker-end: url('#marker-a4ahaccslupff7ytir50q64ft');" d="M675,225L730,225C732.5,225,735,227.5,735,230L735,685C735,687.5,737.5,690,740,690L790,690"/></g><path d="M675,225L735,225L735,690L790,690" class="djs-hit djs-hit-stroke" style="fill: none; stroke-opacity: 0; stroke: white; stroke-width: 15px;"/></g></g><g class="djs-group"><g class="djs-element djs-connection" data-element-id="Flow_12" style="display: block;"><g class="djs-visual"><defs><marker id="marker-4v9ghww8z3q85e7mglgd4nfg1" viewBox="0 0 20 20" refX="11" refY="10" markerWidth="10" markerHeight="10" orient="auto"><path d="M 1 5 L 11 10 L 1 15 Z" style="stroke-linecap: round; stroke-linejoin: round; stroke: rgb(34, 36, 42); stroke-width: 1px; fill: rgb(34, 36, 42);"/></marker></defs><path data-corner-radius="5" style="fill: none; stroke-linecap: round; stroke-linejoin: round; stroke: rgb(34, 36, 42); stroke-width: 2px; marker-end: url('#marker-4v9ghww8z3q85e7mglgd4nfg1');" d="M675,225L730,225C732.5,225,735,227.5,735,230L735,785C735,787.5,737.5,790,740,790L790,790"/></g><path d="M675,225L735,225L735,790L790,790" class="djs-hit djs-hit-stroke" style="fill: none; stroke-opacity: 0; stroke: white; stroke-width: 15px;"/></g></g><g class="djs-group"><g class="djs-element djs-connection" data-element-id="Flow_13" style="display: block;"><g class="djs-visual"><defs><marker id="marker-7igpoe7t5xmcz6w7l1fbtimjv" viewBox="0 0 20 20" refX="11" refY="10" markerWidth="10" markerHeight="10" orient="auto"><path d="M 1 5 L 11 10 L 1 15 Z" style="stroke-linecap: round; stroke-linejoin: round; stroke: rgb(34, 36, 42); stroke-width: 1px; fill: rgb(34, 36, 42);"/></marker></defs><path data-corner-radius="5" style="fill: none; stroke-linecap: round; stroke-linejoin: round; stroke: rgb(34, 36, 42); stroke-width: 2px; marker-end: url('#marker-7igpoe7t5xmcz6w7l1fbtimjv');" d="M960,490L990,490C992.5,490,995,492.5,995,495L995,635C995,637.5,997.5,640,1000,640L1030,640"/></g><path d="M960,490L995,490L995,640L1030,640" class="djs-hit djs-hit-stroke" style="fill: none; stroke-opacity: 0; stroke: white; stroke-width: 15px;"/></g></g><g class="djs-group"><g class="djs-element djs-connection" data-element-id="Flow_14" style="display: block;"><g class="djs-visual"><defs><marker id="marker-3jxj6qiajflsq2shwpjfz4sxb" viewBox="0 0 20 20" refX="11" refY="10" markerWidth="10" markerHeight="10" orient="auto"><path d="M 1 5 L 11 10 L 1 15 Z" style="stroke-linecap: round; stroke-linejoin: round; stroke: rgb(34, 36, 42); stroke-width: 1px; fill: rgb(34, 36, 42);"/></marker></defs><path data-corner-radius="5" style="fill: none; stroke-linecap: round; stroke-linejoin: round; stroke: rgb(34, 36, 42); stroke-width: 2px; marker-end: url('#marker-3jxj6qiajflsq2shwpjfz4sxb');" d="M960,590L990,590C992.5,590,995,592.5,995,595L995,635C995,637.5,997.5,640,1000,640L1030,640"/></g><path d="M960,590L995,590L995,640L1030,640" class="djs-hit djs-hit-stroke" style="fill: none; stroke-opacity: 0; stroke: white; stroke-width: 15px;"/></g></g><g class="djs-group"><g class="djs-element djs-connection" data-element-id="Flow_15" style="display: block;"><g class="djs-visual"><defs><marker id="marker-37yl3e5b1vf30gcsj57ke7xv3" viewBox="0 0 20 20" refX="11" refY="10" markerWidth="10" markerHeight="10" orient="auto"><path d="M 1 5 L 11 10 L 1 15 Z" style="stroke-linecap: round; stroke-linejoin: round; stroke: rgb(34, 36, 42); stroke-width: 1px; fill: rgb(34, 36, 42);"/></marker></defs><path data-corner-radius="5" style="fill: none; stroke-linecap: round; stroke-linejoin: round; stroke: rgb(34, 36, 42); stroke-width: 2px; marker-end: url('#marker-37yl3e5b1vf30gcsj57ke7xv3');" d="M960,690L990,690C992.5,690,995,687.5,995,685L995,645C995,642.5,997.5,640,1000,640L1030,640"/></g><path d="M960,690L995,690L995,640L1030,640" class="djs-hit djs-hit-stroke" style="fill: none; stroke-opacity: 0; stroke: white; stroke-width: 15px;"/></g></g><g class="djs-group"><g class="djs-element djs-connection" data-element-id="Flow_16" style="display: block;"><g class="djs-visual"><defs><marker id="marker-46rhua8tuyswjxlfo2go69uvk" viewBox="0 0 20 20" refX="11" refY="10" markerWidth="10" markerHeight="10" orient="auto"><path d="M 1 5 L 11 10 L 1 15 Z" style="stroke-linecap: round; stroke-linejoin: round; stroke: rgb(34, 36, 42); stroke-width: 1px; fill: rgb(34, 36, 42);"/></marker></defs><path data-corner-radius="5" style="fill: none; stroke-linecap: round; stroke-linejoin: round; stroke: rgb(34, 36, 42); stroke-width: 2px; marker-end: url('#marker-46rhua8tuyswjxlfo2go69uvk');" d="M960,790L990,790C992.5,790,995,787.5,995,785L995,645C995,642.5,997.5,640,1000,640L1030,640"/></g><path d="M960,790L995,790L995,640L1030,640" class="djs-hit djs-hit-stroke" style="fill: none; stroke-opacity: 0; stroke: white; stroke-width: 15px;"/></g></g><g class="djs-group"><g class="djs-element djs-connection" data-element-id="Flow_17" style="display: block;"><g class="djs-visual"><defs><marker id="marker-7s5fa4slk3yv2uv93qsn5ydlz" viewBox="0 0 20 20" refX="11" refY="10" markerWidth="10" markerHeight="10" orient="auto"><path d="M 1 5 L 11 10 L 1 15 Z" style="stroke-linecap: round; stroke-linejoin: round; stroke: rgb(34, 36, 42); stroke-width: 1px; fill: rgb(34, 36, 42);"/></marker></defs><path data-corner-radius="5" style="fill: none; stroke-linecap: round; stroke-linejoin: round; stroke: rgb(34, 36, 42); stroke-width: 2px; marker-end: url('#marker-7s5fa4slk3yv2uv93qsn5ydlz');" d="M1150,640L1212,640"/></g><path d="M1150,640L1212,640" class="djs-hit djs-hit-stroke" style="fill: none; stroke-opacity: 0; stroke: white; stroke-width: 15px;"/></g></g></g></g></svg>